Units are S.I. units (second, meters, Newtons, ...)
Angles are in degrees.
name walk
datarows 27
datacolumns 25
range 93.00000 18.00000
endheader
time Pelvis_PX Pelvis_PY Pelvis_PZ Pelvis_X Pelvis_Y Pelvis_Z FemurR_X FemurR_Y FemurR_Z TibiaR_X TibiaR_Y TibiaR_Z TalusR_X TalusR_Y TalusR_Z FemurL_X FemurL_Y FemurL_Z TibiaL_X TibiaL_Y TibiaL_Z TalusL_X TalusL_Y TalusL_Z
93.00000 367.176 945.319 -65.137 -0.00904 -0.12493 15.42945 -1.22165 0.23471 37.33740 1.57350 -25.68070 10.78180 0.75360 4.17789 1.00166 3.76061 -10.06230 2.27949 1.68911 -5.02269 1.46042 -1.02515 9.21188 7.23973
94.00000 376.298 945.937 -63.866 -0.00261 -0.11945 15.43930 -1.20869 -0.41051 36.61510 0.71604 -24.93200 6.53172 0.57775 4.75846 0.33006 3.67485 -10.37160 1.49784 1.70065 -4.69660 1.56046 -0.49073 9.42301 7.16897
95.00000 385.348 946.775 -62.641 0.00607 -0.11628 15.43505 -1.20759 -1.02101 35.92990 0.06505 -24.08910 2.85016 0.44151 5.21408 -0.22424 3.54126 -10.64880 0.77379 1.69203 -4.33682 1.80726 0.06911 9.63252 7.07433
96.00000 394.337 947.782 -61.373 0.01563 -0.11808 15.43590 -1.21273 -1.50060 35.38800 -0.36508 -23.44720 -0.01069 0.40608 5.60495 -0.60520 3.35177 -10.86030 0.13361 1.65856 -3.96504 2.20698 0.65553 9.83980 6.94414
97.00000 403.257 949.030 -59.956 0.02460 -0.12562 15.45495 -1.21431 -1.80524 35.08840 -0.59108 -23.16550 -1.78860 0.48299 5.95892 -0.76384 3.10621 -10.99300 -0.40985 1.60015 -3.59806 2.75555 1.26672 10.04960 6.76231
98.00000 412.169 950.440 -58.582 0.03139 -0.13842 15.49590 -1.20191 -1.93111 35.08750 -0.64056 -23.15330 -2.31070 0.60090 6.19120 -0.67648 2.80959 -11.06230 -0.85804 1.51959 -3.24239 3.44373 1.89760 10.27510 6.51343
99.00000 420.887 951.881 -57.246 0.03552 -0.15570 15.54885 -1.16260 -1.89413 35.36000 -0.54415 -23.17710 -1.60345 0.64760 6.17158 -0.37138 2.46717 -11.10760 -1.22736 1.42155 -2.88910 4.26292 2.54048 10.53270 6.18448
100.00000 429.567 953.294 -55.946 0.03795 -0.17623 15.59255 -1.08081 -1.71622 35.79020 -0.33536 -23.08190 0.06596 0.58201 5.86236 0.04254 2.08086 -11.18010 -1.54539 1.31190 -2.52182 5.21088 3.18767 10.83650 5.76408
0.00000 438.109 954.730 -54.493 0.12293 -0.21159 6.70788 1.39312 -7.91805 24.05780 -0.22264 -6.78132 -8.11537 7.26956 6.65358 -2.59928 0.36487 -13.16380 -15.33290 0.07467 10.74200 0.49490 2.67742 9.85074 7.14799
1.00000 446.464 956.080 -53.208 0.10748 -0.17654 6.68443 1.52262 -8.12926 23.67090 -0.18684 -7.33330 -7.54690 7.21045 6.82821 -3.03154 0.05860 -13.60270 -15.61680 -0.44565 10.97140 1.61389 3.41449 10.43700 6.48529
2.00000 455.112 957.637 -51.997 0.08749 -0.14005 6.67210 1.76028 -8.27388 23.31130 -0.14863 -7.93146 -6.71369 6.84951 7.11892 -4.14863 -0.30207 -14.04720 -15.85850 -1.00486 11.01090 2.78086 4.13069 11.11280 5.60471
3.00000 463.451 959.003 -50.720 0.06311 -0.10265 6.68422 2.12452 -8.27285 22.93990 -0.08342 -8.53033 -5.95084 6.13242 7.22080 -5.88144 -0.70775 -14.42560 -16.04750 -1.59239 10.72240 4.00094 4.73121 11.92440 4.47626
4.00000 471.768 960.298 -49.564 0.03570 -0.06779 6.71380 2.62626 -8.07569 22.52240 0.00711 -8.96031 -5.38199 5.23129 6.93649 -7.77703 -1.15406 -14.67390 -16.17590 -2.19297 9.97579 5.30502 5.13586 12.91410 3.06179
5.00000 480.056 961.555 -48.334 0.00734 -0.03932 6.73208 3.24601 -7.70847 22.06350 0.10915 -8.92168 -4.82676 4.45517 6.20252 -9.32452 -1.63858 -14.76030 -16.23250 -2.78978 8.68588 6.75401 5.28253 14.11780 1.32049
6.00000 488.291 962.803 -47.128 -0.02037 -0.01843 6.71029 3.94025 -7.26118 21.60850 0.21835 -8.30009 -4.03993 3.81613 5.17953 -10.30630 -2.15867 -14.69550 -16.18370 -3.36764 6.83384 8.42755 5.11660 15.56650 -0.78675
7.00000 496.465 964.043 -46.009 -0.04548 -0.00301 6.63859 4.66593 -6.83972 21.18150 0.33900 -7.34770 -2.97973 3.08896 4.19839 -10.73030 -2.71312 -14.51860 -15.97030 -3.90867 4.48016 10.40840 4.58374 17.25230 -3.27679
8.00000 504.539 965.280 -44.954 -0.06427 0.01003 6.52775 5.39591 -6.51937 20.74540 0.46987 -6.42200 -1.81170 2.11772 3.48343 -10.67650 -3.29910 -14.27510 -15.52360 -4.39062 1.77482 12.76600 3.63603 19.07400 -6.11023
9.00000 512.625 966.540 -44.075 -0.07173 0.02201 6.40532 6.11498 -6.31863 20.23920 0.59930 -5.69255 -0.73707 0.90165 3.03942 -10.25940 -3.90337 -13.99700 -14.78490 -4.80177 -1.06235 15.53430 2.28077 20.84190 -9.17505
10.00000 520.700 967.860 -43.226 -0.06469 0.03085 6.30635 6.80638 -6.20121 19.62720 0.71553 -5.11858 0.11689 -0.41648 2.75755 -9.61186 -4.49742 -13.69680 -13.72240 -5.15902 -3.78903 18.69760 0.59489 22.35810 -12.29830
11.00000 528.735 969.191 -42.544 -0.04544 0.03253 6.25886 7.44529 -6.10114 18.90910 0.81687 -4.59379 0.70200 -1.63649 2.51743 -8.84920 -5.05099 -13.37430 -12.33800 -5.49365 -6.16707 22.19670 -1.37662 23.45970 -15.26820
12.00000 536.694 970.431 -41.965 -0.02014 0.02491 6.27109 8.00777 -5.96078 18.10540 0.90479 -4.08285 1.03329 -2.59395 2.24151 -8.04187 -5.55111 -13.03490 -10.66710 -5.82088 -7.97190 25.94140 -3.66327 23.99280 -17.90280
13.00000 544.640 971.668 -41.425 0.00642 0.01067 6.32572 8.47836 -5.77006 17.23900 0.98168 -3.66508 1.15982 -3.22268 1.95669 -7.22246 -5.99866 -12.70860 -8.77312 -6.15193 -9.05950 29.82020 -6.22704 23.85030 -20.14290
14.00000 552.524 972.856 -40.858 0.03117 -0.00572 6.38532 8.85075 -5.57070 16.31460 1.05546 -3.46981 1.12610 -3.57099 1.79006 -6.40820 -6.38836 -12.44540 -6.73151 -6.53160 -9.44207 33.72730 -8.83117 23.04520 -22.01180
15.00000 560.450 973.928 -40.332 0.05064 -0.02274 6.40682 9.12859 -5.41068 15.31120 1.13512 -3.56418 0.95723 -3.74436 1.85373 -5.61279 -6.69609 -12.30150 -4.60931 -7.04150 -9.25744 37.59020 -11.08090 21.69980 -23.46010
16.00000 568.305 975.034 -39.822 0.06369 -0.03864 6.35480 9.32462 -5.30966 14.20200 1.22292 -3.87630 0.67226 -3.83062 2.12811 -4.84761 -6.88632 -12.33560 -2.46049 -7.76161 -8.68665 41.36260 -12.62050 20.00590 -24.29690
17.00000 576.165 976.150 -39.293 0.06908 -0.05126 6.21184 9.45266 -5.27220 12.97710 1.31482 -4.21551 0.30109 -3.87594 2.47075 -4.11791 -6.94071 -12.58060 -0.32129 -8.72347 -7.92524 44.99370 -13.33650 18.20910 -24.30070
18.00000 584.067 977.220 -38.742 0.06183 -0.06199 5.98611 9.52279 -5.30303 11.65310 1.40375 -4.38307 -0.11588 -3.89702 2.72256 -3.42017 -6.87164 -13.00920 1.79601 -9.89145 -7.17829 48.40910 -13.36370 16.56430 -23.40740
